<?xml version="1.0" encoding="UTF-8" standalone="no"?>
<svg width="41px" height="25px" viewBox="0 0 41 25" version="1.1" xmlns="http://www.w3.org/2000/svg" xmlns:xlink="http://www.w3.org/1999/xlink">
    <!-- Generator: Sketch 3.8.3 (29802) - http://www.bohemiancoding.com/sketch -->
    <title>Fill 1@2x</title>
    <desc>Created with Sketch.</desc>
    <defs></defs>
    <g id="Page-1" stroke="none" stroke-width="1" fill="none" fill-rule="evenodd">
        <g id="wireframe-one" transform="translate(-179.000000, -157.000000)" fill="#FFFFFF">
            <path d="M218.668351,175.711962 L218.313381,175.711962 L218.313381,173.531435 L218.9219,173.531435 L218.668351,175.711962 Z M218.516221,180.427984 C218.516221,180.681534 218.313381,180.935084 218.009122,180.935084 L180.990878,180.935084 C180.737329,180.935084 180.483779,180.732244 180.483779,180.427984 L180.483779,178.805267 C180.483779,178.501007 180.737329,178.247458 181.041588,178.247458 L189.358015,178.247458 C189.966534,178.247458 190.524344,178.450297 191.031443,178.703847 L191.031443,179.616626 C191.031443,179.920885 191.234283,180.123725 191.538542,180.123725 C191.842802,180.123725 192.045641,179.920885 192.045641,179.616626 L192.045641,178.703847 C192.552741,178.450297 193.16126,178.247458 193.719069,178.247458 L205.230221,178.247458 C205.83874,178.247458 206.39655,178.450297 206.903649,178.703847 L206.903649,179.616626 C206.903649,179.920885 207.106488,180.123725 207.410748,180.123725 C207.715008,180.123725 207.917847,179.920885 207.917847,179.616626 L207.917847,178.703847 C208.475656,178.450297 209.033466,178.247458 209.591275,178.247458 L217.856992,178.247458 C218.161252,178.247458 218.414801,178.501007 218.414801,178.805267 L218.414801,180.427984 L218.516221,180.427984 Z M180.331649,175.711962 L180.02739,173.531435 L180.635909,173.531435 L180.635909,175.711962 L180.331649,175.711962 Z M180.331649,163.237321 L180.686619,163.237321 L180.686619,165.417847 L180.0781,165.417847 L180.331649,163.237321 Z M180.483779,158.521298 C180.483779,158.267748 180.686619,158.014198 180.990878,158.014198 L218.059832,158.014198 C218.313381,158.014198 218.566931,158.217038 218.566931,158.521298 L218.566931,160.144015 C218.566931,160.448275 218.313381,160.701824 218.009122,160.701824 L209.641985,160.701824 C209.033466,160.701824 208.475656,160.498985 207.968557,160.245435 L207.968557,159.332656 C207.968557,159.028397 207.765717,158.825557 207.461458,158.825557 C207.157198,158.825557 206.954359,159.028397 206.954359,159.332656 L206.954359,160.245435 C206.447259,160.498985 205.83874,160.701824 205.280931,160.701824 L193.719069,160.701824 C193.11055,160.701824 192.552741,160.498985 192.045641,160.245435 L192.045641,159.332656 C192.045641,159.028397 191.842802,158.825557 191.538542,158.825557 C191.234283,158.825557 191.031443,159.028397 191.031443,159.332656 L191.031443,160.245435 C190.473634,160.498985 189.915825,160.701824 189.358015,160.701824 L181.041588,160.701824 C180.737329,160.701824 180.483779,160.448275 180.483779,160.144015 L180.483779,158.521298 Z M218.668351,163.237321 L218.97261,165.417847 L218.364091,165.417847 L218.364091,163.237321 L218.668351,163.237321 Z M206.802229,165.924946 L207.106488,163.74442 L207.867137,163.74442 L208.120687,165.924946 L206.802229,165.924946 Z M190.879313,165.924946 L191.183573,163.74442 L191.893512,163.74442 L192.197771,165.924946 L190.879313,165.924946 Z M192.197771,173.024336 L191.893512,175.204862 L191.132863,175.204862 L190.879313,173.024336 L192.197771,173.024336 Z M208.120687,173.024336 L207.816427,175.204862 L207.106488,175.204862 L206.802229,173.024336 L208.120687,173.024336 Z M209.641985,177.182549 C209.084175,177.182549 208.526366,177.283969 207.968557,177.537519 L207.968557,176.219061 C208.424946,176.219061 208.779916,175.864091 208.830626,175.458412 L209.134885,173.024336 C209.185595,172.770786 209.084175,172.517236 208.932046,172.314397 C208.779916,172.111557 208.526366,172.010137 208.272817,172.010137 L207.968557,172.010137 L207.968557,171.452328 C207.968557,171.148068 207.765717,170.945229 207.461458,170.945229 C207.207908,170.945229 206.954359,171.148068 206.954359,171.452328 L206.954359,172.010137 L206.650099,172.010137 C206.39655,172.010137 206.143,172.111557 205.99087,172.314397 C205.83874,172.517236 205.737321,172.770786 205.78803,173.024336 L206.09229,175.458412 C206.143,175.914801 206.497969,176.219061 206.954359,176.219061 L206.954359,177.537519 C206.34584,177.283969 205.78803,177.182549 205.280931,177.182549 L193.719069,177.182549 C193.16126,177.182549 192.65416,177.283969 192.045641,177.537519 L192.045641,176.219061 C192.502031,176.219061 192.857,175.864091 192.90771,175.458412 L193.21197,173.024336 C193.262679,172.770786 193.16126,172.517236 193.00913,172.314397 C192.857,172.111557 192.60345,172.010137 192.349901,172.010137 L192.045641,172.010137 L192.045641,171.452328 C192.045641,171.148068 191.842802,170.945229 191.538542,170.945229 C191.234283,170.945229 191.031443,171.148068 191.031443,171.452328 L191.031443,172.010137 L190.727183,172.010137 C190.473634,172.010137 190.220084,172.111557 190.067954,172.314397 C189.915825,172.517236 189.814405,172.770786 189.865115,173.024336 L190.169374,175.458412 C190.220084,175.864091 190.575054,176.219061 191.031443,176.219061 L191.031443,177.537519 C190.422924,177.283969 189.865115,177.182549 189.307305,177.182549 L181.650107,177.182549 L181.650107,161.766733 L189.358015,161.766733 C189.915825,161.766733 190.473634,161.665313 191.031443,161.411763 L191.031443,162.730221 C190.575054,162.730221 190.220084,163.085191 190.169374,163.49087 L189.865115,165.924946 C189.814405,166.178496 189.915825,166.432046 190.067954,166.634885 C190.220084,166.837725 190.473634,166.939145 190.727183,166.939145 L191.031443,166.939145 L191.031443,167.547664 C191.031443,167.851923 191.234283,168.054763 191.538542,168.054763 C191.842802,168.054763 192.045641,167.851923 192.045641,167.547664 L192.045641,166.939145 L192.349901,166.939145 C192.60345,166.939145 192.857,166.837725 193.00913,166.634885 C193.16126,166.432046 193.262679,166.178496 193.21197,165.924946 L192.90771,163.49087 C192.857,163.034481 192.502031,162.730221 192.045641,162.730221 L192.045641,161.411763 C192.65416,161.665313 193.21197,161.766733 193.719069,161.766733 L205.230221,161.766733 C205.78803,161.766733 206.29513,161.665313 206.903649,161.411763 L206.903649,162.730221 C206.447259,162.730221 206.09229,163.085191 206.04158,163.49087 L205.737321,165.924946 C205.686611,166.178496 205.78803,166.432046 205.94016,166.634885 C206.09229,166.837725 206.34584,166.939145 206.599389,166.939145 L206.903649,166.939145 L206.903649,167.547664 C206.903649,167.851923 207.106488,168.054763 207.410748,168.054763 C207.715008,168.054763 207.917847,167.851923 207.917847,167.547664 L207.917847,166.939145 L208.222107,166.939145 C208.475656,166.939145 208.729206,166.837725 208.881336,166.634885 C209.033466,166.432046 209.134885,166.178496 209.084175,165.924946 L208.779916,163.49087 C208.729206,163.034481 208.374237,162.730221 207.917847,162.730221 L207.917847,161.411763 C208.526366,161.665313 209.084175,161.766733 209.641985,161.766733 L217.349893,161.766733 L217.349893,177.182549 L209.641985,177.182549 L209.641985,177.182549 Z M219.12474,172.517236 L218.769771,172.517236 L218.769771,171.655168 C218.769771,171.401618 218.566931,171.198778 218.364091,171.148068 L218.364091,168.004053 C218.617641,167.953343 218.769771,167.750504 218.769771,167.496954 L218.769771,166.432046 L218.769771,166.381336 L219.12474,166.381336 C219.37829,166.381336 219.631839,166.279916 219.783969,166.077076 C219.936099,165.874237 220.037519,165.620687 219.986809,165.367137 L219.682549,162.933061 C219.631839,162.476672 219.22616,162.172412 218.769771,162.172412 L218.313381,162.172412 L218.313381,161.665313 C218.97261,161.462473 219.47971,160.853954 219.47971,160.144015 L219.47971,158.521298 C219.47971,157.709939 218.820481,157 217.958412,157 L180.990878,157 C180.179519,157 179.46958,157.659229 179.46958,158.521298 L179.46958,160.144015 C179.46958,160.853954 179.97668,161.462473 180.635909,161.665313 L180.635909,162.172412 L180.230229,162.172412 C179.77384,162.172412 179.418871,162.527382 179.317451,162.933061 L179.013191,165.417847 C178.962481,165.671397 179.063901,165.924946 179.216031,166.127786 C179.368161,166.330626 179.62171,166.432046 179.87526,166.432046 L180.230229,166.432046 L180.230229,166.482756 L180.230229,167.547664 C180.230229,167.801214 180.433069,168.004053 180.635909,168.054763 L180.635909,171.198778 C180.382359,171.249488 180.230229,171.452328 180.230229,171.705878 L180.230229,172.517236 L179.87526,172.517236 C179.62171,172.517236 179.368161,172.618656 179.216031,172.821496 C179.063901,173.024336 178.962481,173.277885 179.013191,173.531435 L179.317451,175.965511 C179.368161,176.4219 179.77384,176.72616 180.230229,176.72616 L180.686619,176.72616 L180.686619,177.233259 C180.02739,177.436099 179.52029,178.044618 179.52029,178.754557 L179.52029,180.377274 C179.52029,181.188633 180.179519,181.898572 181.041588,181.898572 L218.110542,181.898572 C218.9219,181.898572 219.631839,181.239343 219.631839,180.377274 L219.631839,178.754557 C219.631839,178.044618 219.12474,177.436099 218.465511,177.233259 L218.465511,176.72616 L218.769771,176.72616 C219.22616,176.72616 219.581129,176.371191 219.682549,175.965511 L219.986809,173.531435 C220.037519,173.277885 219.936099,173.024336 219.783969,172.821496 C219.631839,172.618656 219.37829,172.517236 219.12474,172.517236 L219.12474,172.517236 Z" id="Fill-1"></path>
        </g>
    </g>
</svg>